<?xml version="1.0" encoding="iso-8859-1"?>
<!-- Generator: Adobe Illustrator 19.0.0, SVG Export Plug-In . SVG Version: 6.00 Build 0)  -->
<svg version="1.1" id="Capa_1" xmlns="http://www.w3.org/2000/svg" xmlns:xlink="http://www.w3.org/1999/xlink" x="0px" y="0px"
	 viewBox="0 0 511.999 511.999" style="enable-background:new 0 0 511.999 511.999;" xml:space="preserve">
<g>
	<g>
		<path d="M436.491,291.539h-149.13c-0.552-5.587-1.428-10.596-2.522-15.088c4.012,2.08,8.398,3.108,12.772,3.108
			c8.161,0,16.261-3.543,21.717-10.328l22.121-27.502c0,0,15.172,6.173,20.217,24.923c2.038,7.577,8.246,6.169,8.685,6.093
			c4.079-0.715,6.808-4.603,6.093-8.684c-2.757-15.72-13.108-28.992-27.689-35.5l-27.768-12.395
			c24.562-24.345,25.744-66.247,25.744-66.247c2.74-1.19,13.694-5.821,11.209-20.818c-1.177-7.106-1.216-14.505,0.037-22.019
			c2.099-12.594,1.349-33.081-7.052-52.81c-1.623-3.812-6.028-5.586-9.84-3.962c-3.811,1.623-5.586,6.028-3.962,9.839
			c7.136,16.761,7.808,33.96,6.057,44.467c-1.531,9.181-1.538,18.28-0.021,27.043c0.287,1.656-0.024,4.724-3.872,4.851
			c-53.62,1.759-92.752-13.87-116.324-45.423c-17.09-22.877-19.535-46.636-19.687-48.299c-0.043-2.578,2.692-7.479,10.589-12.981
			c19.065-13.284,54.973-20.816,83.973-8.608c8.431,3.549,15.88,8.319,22.141,14.176c3.026,2.83,7.774,2.671,10.602-0.354
			c2.83-3.025,2.672-7.772-0.353-10.602c-7.561-7.072-16.5-12.808-26.568-17.047c-34.313-14.447-75.459-5.842-98.37,10.126
			c-9.264,6.457-14.983,13.803-16.563,21.115c-25.473,15.466-35.515,46.564-28.277,88.16c0.66,3.796,2.359,7.19,4.823,9.887v16.261
			c0,2.297,0.203,6.82,0.203,6.82l-19.268,0.038c-12.212,0-22.523,8.268-25.648,19.498c-16.038,2.409-28.375,16.279-28.375,32.977
			v79.283H75.508c-21.989,0-39.88,17.89-39.88,39.879c0,20.66,15.793,37.698,35.94,39.683v112.549
			c0,15.632,12.718,28.352,28.352,28.352h312.16c15.633,0,28.352-12.719,28.352-28.352V371.101
			c20.146-1.985,35.938-19.023,35.938-39.683C476.371,309.429,458.48,291.539,436.491,291.539z M327.283,235.408l-19.644,24.421
			c-4.349,5.408-12.347,6.343-17.825,2.08l-13.613-10.59c0,0,7.131-11.209,7.455-11.982c8.916-2.86,17.238-7.061,24.721-12.369
			L327.283,235.408z M213.682,103.567c11.271,13.941,25.587,25.037,42.645,33.007c21.118,9.867,46.457,14.901,75.402,15.016
			c0,0-3.315,77.061-75.729,77.061c-26.842,0-51.797-14.434-65.423-37.741c0.251-1.465,0.389-2.968,0.389-4.504
			c0-8.191-3.72-15.527-9.558-20.416c-0.754-4.286-1.137-8.683-1.137-13.068v-9.905c5.402-0.121,10.571-2.458,14.3-6.694
			C204.413,125.146,210.242,113.276,213.682,103.567z M256,270.602c3.635,0,7.055-1.364,9.651-3.76
			c2.848,5.832,5.419,13.835,6.631,24.697H239.72c1.217-10.884,3.797-18.892,6.63-24.697
			C248.945,269.238,252.365,270.602,256,270.602z M248.494,243.326c2.485,0.208,4.987,0.327,7.506,0.327
			c2.524,0,5.023-0.109,7.496-0.312L256,254.967L248.494,243.326z M222.186,261.909c-5.478,4.262-13.474,3.329-17.825-2.08
			l-19.645-24.422l18.986-8.474c7.526,5.33,15.828,9.499,24.619,12.34c0.33,0.799,7.478,12.046,7.478,12.046L222.186,261.909z
			 M227.182,276.44c-1.261,5.2-2.055,10.329-2.531,15.098h-74.812v-19.188c0.001-22.654,20.712-30.62,20.712-30.62l22.121,27.501
			c5.457,6.786,13.555,10.328,21.717,10.328C218.77,279.559,223.164,278.528,227.182,276.44z M190.368,55.919
			c1.906,8.087,5.525,19.392,12.318,31.451c-1.743,8.538-6.54,24.464-19.374,39.041c-1.779,2.021-3.958,1.681-4.812,1.439
			c-0.835-0.235-2.824-1.062-3.274-3.646C168.646,86.393,178.278,66.445,190.368,55.919z M146.205,174.781h18.136
			c6.41,0,11.624,5.214,11.624,11.625c0,6.411-5.214,11.625-11.624,11.625h-18.136c-6.41,0-11.624-5.214-11.624-11.625
			C134.581,179.996,139.795,174.781,146.205,174.781z M120.852,194.534c3.444,10.718,13.505,18.498,25.352,18.498h18.136
			c6.993,0,13.36-2.713,18.116-7.138c2.634,3.644,5.515,7.068,8.615,10.248l-27.825,12.42
			c-17.258,7.704-28.408,24.891-28.408,43.788v19.188h-27.656v-79.282h-0.001C107.182,203.758,112.998,196.611,120.852,194.534z
			 M436.492,356.296H139.467c-4.143,0-7.501,3.358-7.501,7.501s3.357,7.501,7.501,7.501H425.43v112.353
			c0,7.362-5.989,13.35-13.35,13.35H99.919c-7.361,0-13.35-5.989-13.35-13.35V371.297h18.354c4.143,0,7.501-3.358,7.501-7.501
			s-3.357-7.501-7.501-7.501H75.508c-13.718,0-24.878-11.16-24.878-24.877s11.16-24.877,24.878-24.877h360.983
			c13.718,0,24.878,11.16,24.878,24.877S450.209,356.296,436.492,356.296z"/>
	</g>
</g>
<g>
</g>
<g>
</g>
<g>
</g>
<g>
</g>
<g>
</g>
<g>
</g>
<g>
</g>
<g>
</g>
<g>
</g>
<g>
</g>
<g>
</g>
<g>
</g>
<g>
</g>
<g>
</g>
<g>
</g>
</svg>
