<svg xmlns="http://www.w3.org/2000/svg" xmlns:xlink="http://www.w3.org/1999/xlink" viewBox="0 0 1152.856 705.746" height="940.995" width="1537.141">
    <defs>
        <clipPath id="d">
            <path d="M1107 432h101v292h-101zm0 0"/>
        </clipPath>
        <clipPath id="A">
            <path d="M993.09 262.527c32.39 46.446 69 8.575 69 8.575-6.668 3.882-33.418 7.293-43.649-14.29"/>
        </clipPath>
        <clipPath id="z">
            <path d="M993.09 262.527c32.39 46.446 69 8.575 69 8.575-6.668 3.882-33.418 7.293-43.649-14.29zm0 0"/>
        </clipPath>
        <clipPath id="y">
            <path d="M993 256h70v30h-70zm0 0"/>
        </clipPath>
        <clipPath id="x">
            <path d="M1107.18 330.824c9.832 0 11.761-5.949 11.761-5.949a8.143 8.143 0 00-2.09-.277c-5.75 0-9.671 6.226-9.671 6.226"/>
        </clipPath>
        <clipPath id="w">
            <path d="M1107.18 330.824c9.832 0 11.761-5.949 11.761-5.949a8.143 8.143 0 00-2.09-.277c-5.75 0-9.671 6.226-9.671 6.226"/>
        </clipPath>
        <clipPath id="v">
            <path d="M1107 324h12v7h-12zm0 0"/>
        </clipPath>
        <clipPath id="u">
            <path d="M1071.469 358.625c8.39 15.29 20.922 24.074 26.922 25.34 2.87.601 9.75.601 12.609-.606 8.988-3.785 10.281-6.87 22.922-24.132l-2.871 1.207c-6.973 9.53-10.242 13.613-16.04 17.496-4.69 3.14-16.773 3.113-21.773.601-7.347-3.691-13.828-9.613-19.476-19.906"/>
        </clipPath>
        <clipPath id="t">
            <path d="M1071.469 358.625c8.39 15.29 20.922 24.074 26.922 25.34 2.87.601 9.75.601 12.609-.606 8.988-3.785 10.281-6.87 22.922-24.132l-2.871 1.207c-6.973 9.53-10.242 13.613-16.04 17.496-4.69 3.14-16.773 3.113-21.773.601-7.347-3.691-13.828-9.613-19.476-19.906zm0 0"/>
        </clipPath>
        <clipPath id="s">
            <path d="M1071 358h63v27h-63zm0 0"/>
        </clipPath>
        <clipPath id="r">
            <path d="M1089.64 346.637s-14.91 5.676-20.538 11.23c-.68.668 3.386 1.477 3.386 1.477.781.347 10.922 4.129 25.903 5.312 2.148.168 2.878 1.813 5.16 1.813 1.73 0 3.37-1.086 5.16-1.207 7.96-.54 19.027-1.918 27.309-5.942 0 0 3.449-.797 2.878-1.398-1.91-2.027-14.136-9.277-14.136-9.277-3.531-2.317-7.75-3.055-11.774-2.063l-4.66 1.152c-1.61.59-3.316.586-5.09-.047l-7.527-1.855a8.289 8.289 0 00-2-.242 8.5 8.5 0 00-4.07 1.047m-12.442 11.383c-.418-.133-.39-.993 0-1.204l12.942-6.441a8.198 8.198 0 015.91-.79l6.308 1.548c2.262.82 4.75.828 6.852.047l4.559-1.125c3.16-.774 6.468-.196 9.25 1.625l7.62 4.996c.438.293.38.992-.109 1.195-7.93 3.242-16.66 4.379-24.87 4.379-12 0-22.88-2.43-28.462-4.23"/>
        </clipPath>
        <clipPath id="q">
            <path d="M1089.64 346.637s-14.91 5.676-20.538 11.23c-.68.668 3.386 1.477 3.386 1.477.781.347 10.922 4.129 25.903 5.312 2.148.168 2.878 1.813 5.16 1.813 1.73 0 3.37-1.086 5.16-1.207 7.96-.54 19.027-1.918 27.309-5.942 0 0 3.449-.797 2.878-1.398-1.91-2.027-14.136-9.277-14.136-9.277-3.531-2.317-7.75-3.055-11.774-2.063l-4.66 1.152c-1.61.59-3.316.586-5.09-.047l-7.527-1.855a8.289 8.289 0 00-2-.242 8.5 8.5 0 00-4.07 1.047m-12.442 11.383c-.418-.133-.39-.993 0-1.204l12.942-6.441a8.198 8.198 0 015.91-.79l6.308 1.548c2.262.82 4.75.828 6.852.047l4.559-1.125c3.16-.774 6.468-.196 9.25 1.625l7.62 4.996c.438.293.38.992-.109 1.195-7.93 3.242-16.66 4.379-24.87 4.379-12 0-22.88-2.43-28.462-4.23"/>
        </clipPath>
        <clipPath id="p">
            <path d="M1069 345h70v22h-70zm0 0"/>
        </clipPath>
        <clipPath id="o">
            <path d="M1087.84 324.875s0 5.95 9.832 5.95c0 0-2.371-6.227-7.793-6.227-.64 0-1.32.086-2.04.277"/>
        </clipPath>
        <clipPath id="n">
            <path d="M1087.84 324.875s0 5.95 9.832 5.95c0 0-2.371-6.227-7.793-6.227-.64 0-1.32.086-2.04.277"/>
        </clipPath>
        <clipPath id="m">
            <path d="M1087 324h11v7h-11zm0 0"/>
        </clipPath>
        <clipPath id="l">
            <path d="M1013.11 185.203v-.008zm-2.04 35.55c.47-20.062 2.051-33.25 2.04-33.733v-1.817c0 .629-1.79 14.524-2.04 35.55m89.88 205.032c9.82 3.617 41.44-9.848 71.359-56.906 0 0-32.18 45.398-61.309 53.094-7.57 1.996-15.41-1.512-22.07-5.922-69.621-46.098-78.5-142.871-77.86-195.297-1.379 58.25 6.578 174.371 89.88 205.031"/>
        </clipPath>
        <clipPath id="k">
            <path d="M1013.11 185.203v-.008zm-2.04 35.55c.47-20.062 2.051-33.25 2.04-33.733v-1.817c0 .629-1.79 14.524-2.04 35.55m89.88 205.032c9.82 3.617 41.44-9.848 71.359-56.906 0 0-32.18 45.398-61.309 53.094-7.57 1.996-15.41-1.512-22.07-5.922-69.621-46.098-78.5-142.871-77.86-195.297-1.379 58.25 6.578 174.371 89.88 205.031"/>
        </clipPath>
        <clipPath id="j">
            <path d="M1010 185h163v242h-163zm0 0"/>
        </clipPath>
        <clipPath id="i">
            <path d="M1055.43 387.582c0 .11.898 2.004 2.172 5.293-1.223-4.656-2.172-7.477-2.172-7.59zm-8.89 89.07c-8.54 8.348-45.36 24.352-70.571 25.559-3.09.144-7.157.133-11.864.117-19.214-.058-49.12-.117-67.02 10.871-17.495 10.739-32.55 31.64-29.87 106.344 3.2-59.504 7.777-91.871 38.789-104.258 14.012-5.598 49.535-4.52 64.875-5.465C1013.379 507.21 1045 494 1054 479c20.64-34.398 8.922-72.406 3.602-86.125 4.578 17.395 12.867 60.406-11.063 83.777M867.215 619.543v0m0 .078v-.008.008m.004.031c-.004-.011-.004-.02-.004-.03 0 .007 0 .019.004.03m0 .031v-.03.03m.004.075c-.004-.028-.004-.055-.004-.075 0 .024 0 .047.004.075m0 .015v-.015.015m.004.094c-.004-.031-.004-.063-.004-.094 0 .031 0 .063.004.094m0 .055v-.055.055m0 .015v-.015.015m.004.055c-.004-.02-.004-.035-.004-.055 0 .016 0 .035.004.055m0 .016v-.016.016m0 .011v-.011.011m.004.082c-.004-.027-.004-.054-.004-.082 0 .028 0 .055.004.082m0 .031v-.03.03m0 .012v-.012.012m0 .035v-.035.035m0 .012v-.012.012m.004.016c0-.008-.004-.012-.004-.016 0 .004.004.008.004.016m0 .02v-.02.02m0 .038v-.039.04m.004.046c-.004-.015-.004-.031-.004-.047 0 .016 0 .031.004.047m0 .055v-.055.055m0 .023v-.023.023m.02.543c-.005-.125-.009-.304-.02-.543l.02.543m.003.028c0-.012-.004-.02-.004-.028 0 .008.004.016.004.028m0 .082v-.082.082m0 .008v-.008.008m.004.07c0-.02 0-.043-.004-.07.004.027.004.05.004.07m0 .012v-.012.012m0 .008v-.008.008m0 .015v-.015.015m0 .008v-.008.008m.004.008c-.004 0-.004-.004-.004-.008 0 .004 0 .008.004.008m0 .012v-.012.012m0 .008v-.008.008m0 .004v-.004.004m0 .004v-.004.004m0 0"/>
        </clipPath>
        <clipPath id="h">
            <path d="M1055.43 387.582c0 .11.898 2.004 2.172 5.293-1.223-4.656-2.172-7.477-2.172-7.59zm-8.89 89.07c-8.54 8.348-45.36 24.352-70.571 25.559-3.09.144-7.157.133-11.864.117-19.214-.058-49.12-.117-67.02 10.871-17.495 10.739-32.55 31.64-29.87 106.344 3.2-59.504 7.777-91.871 38.789-104.258 14.012-5.598 49.535-4.52 64.875-5.465C1013.379 507.21 1045 494 1054 479c20.64-34.398 8.922-72.406 3.602-86.125 4.578 17.395 12.867 60.406-11.063 83.777M867.215 619.543v0m0 .078v-.008.008m.004.031c-.004-.011-.004-.02-.004-.03 0 .007 0 .019.004.03m0 .031v-.03.03m.004.075c-.004-.028-.004-.055-.004-.075 0 .024 0 .047.004.075m0 .015v-.015.015m.004.094c-.004-.031-.004-.063-.004-.094 0 .031 0 .063.004.094m0 .055v-.055.055m0 .015v-.015.015m.004.055c-.004-.02-.004-.035-.004-.055 0 .016 0 .035.004.055m0 .016v-.016.016m0 .011v-.011.011m.004.082c-.004-.027-.004-.054-.004-.082 0 .028 0 .055.004.082m0 .031v-.03.03m0 .012v-.012.012m0 .035v-.035.035m0 .012v-.012.012m.004.016c0-.008-.004-.012-.004-.016 0 .004.004.008.004.016m0 .02v-.02.02m0 .038v-.039.04m.004.046c-.004-.015-.004-.031-.004-.047 0 .016 0 .031.004.047m0 .055v-.055.055m0 .023v-.023.023m.02.543c-.005-.125-.009-.304-.02-.543l.02.543m.003.028c0-.012-.004-.02-.004-.028 0 .008.004.016.004.028m0 .082v-.082.082m0 .008v-.008.008m.004.07c0-.02 0-.043-.004-.07.004.027.004.05.004.07m0 .012v-.012.012m0 .008v-.008.008m0 .015v-.015.015m0 .008v-.008.008m.004.008c-.004 0-.004-.004-.004-.008 0 .004 0 .008.004.008m0 .012v-.012.012m0 .008v-.008.008m0 .004v-.004.004m0 .004v-.004.004m0 0"/>
        </clipPath>
        <clipPath id="a">
            <path d="M1018 148h193v431h-193zm0 0"/>
        </clipPath>
        <clipPath id="b">
            <path d="M1088.27 225.086c23.44 14.734 66.68 28.672 89.62 63.45 49.169 74.558 3.169 128.487-18.03 162.32-24.47 39.054-59.32 73.457-45.212 127.425-9.828-50.136 23.993-84.773 51.774-120.261 39.078-49.926 64.348-112.504 23.367-169.485-32.52-45.207-85.66-58.8-116.598-79.312-24.16-16.02-54.43-61.153-54.43-61.153 33.798 53.696 41.45 59.383 69.509 77.016"/>
        </clipPath>
        <clipPath id="c">
            <path d="M1088.27 225.086c23.44 14.734 66.68 28.672 89.62 63.45 49.169 74.558 3.169 128.487-18.03 162.32-24.47 39.054-59.32 73.457-45.212 127.425-9.828-50.136 23.993-84.773 51.774-120.261 39.078-49.926 64.348-112.504 23.367-169.485-32.52-45.207-85.66-58.8-116.598-79.312-24.16-16.02-54.43-61.153-54.43-61.153 33.798 53.696 41.45 59.383 69.509 77.016"/>
        </clipPath>
        <clipPath id="g">
            <path d="M866 385h200v237H866zm0 0"/>
        </clipPath>
        <clipPath id="e">
            <path d="M1142.29 582.066c-26.84 31.676-46.009 69.094-27.2 139.73-11.52-74.464 5.62-98.894 32.86-131.042 28.59-33.734 62.698-59.492 59.222-158.156-.98 98.359-36.73 116.246-64.883 149.468m-27.187 139.817c0-.031-.012-.059-.012-.086 0 0 0 .031.012.086m0 .008v-.008.008m.02.09c-.012-.032-.012-.059-.02-.09.01.023.01.055.02.09m0 .008v-.008.008m.019.113a.354.354 0 01-.02-.113c0 .035.01.074.02.113m0 .027v-.027.027m0 .024v-.024.024m.01.02c-.01-.009-.01-.016-.01-.02 0 .004 0 .011.01.02m.012.058c-.012-.02-.012-.04-.012-.059 0 .02 0 .04.012.059m0 .054v-.054.054m.019.106c0-.035-.01-.07-.02-.106.013.036.02.07.02.106m.16 1c-.051-.297-.11-.68-.16-1 .07.445.12.77.16 1m0 .035v-.035.035m.05.317l-.05-.317c.02.145.039.25.05.317m0 .004v-.004.004m.01.043c-.01-.016-.01-.028-.01-.043 0 .015 0 .03.01.043m0 .004v-.004.004m0 .027v-.027.027m0 0c.013.039.013.035 0 0"/>
        </clipPath>
        <clipPath id="f">
            <path d="M1142.29 582.066c-26.84 31.676-46.009 69.094-27.2 139.73-11.52-74.464 5.62-98.894 32.86-131.042 28.59-33.734 62.698-59.492 59.222-158.156-.98 98.359-36.73 116.246-64.883 149.468m-27.187 139.817c0-.031-.012-.059-.012-.086 0 0 0 .031.012.086m0 .008v-.008.008m.02.09c-.012-.032-.012-.059-.02-.09.01.023.01.055.02.09m0 .008v-.008.008m.019.113a.354.354 0 01-.02-.113c0 .035.01.074.02.113m0 .027v-.027.027m0 .024v-.024.024m.01.02c-.01-.009-.01-.016-.01-.02 0 .004 0 .011.01.02m.012.058c-.012-.02-.012-.04-.012-.059 0 .02 0 .04.012.059m0 .054v-.054.054m.019.106c0-.035-.01-.07-.02-.106.013.036.02.07.02.106m.16 1c-.051-.297-.11-.68-.16-1 .07.445.12.77.16 1m0 .035v-.035.035m.05.317l-.05-.317c.02.145.039.25.05.317m0 .004v-.004.004m.01.043c-.01-.016-.01-.028-.01-.043 0 .015 0 .03.01.043m0 .004v-.004.004m0 .027v-.027.027m0 0c.013.039.013.035 0 0"/>
        </clipPath>
        <symbol id="N" overflow="visible">
            <path d="M8.86 0H3.796v-21.625h5.062v9.031h14.75v-9.031h5.063V0h-5.063v-9.578H8.86zm0 0"/>
        </symbol>
        <symbol id="C" overflow="visible">
            <path d="M9.047 0H4v-21.625h5.047v10.563l13.64-10.563h5.954L15.219-11.312 29.516 0h-6.438L9.047-11.063zm0 0"/>
        </symbol>
        <symbol id="V" overflow="visible">
            <path d="M13.344 0v-100.344h18.328v89.281h73.875V0zm0 0"/>
        </symbol>
        <symbol id="U" overflow="visible">
            <path d="M57.625 0H39.031L7.078-100.344h17.516l22.422 70.672 3.078 12.094h.828L54-29.672l25.781-70.672h18.14l25.141 70.86 2.907 11.906h.828l2.984-11.906 23.14-70.86H169L136.234 0h-18.609L91.578-71.953l-3.36-12.281h-.906l-3.171 12.28zm0 0"/>
        </symbol>
        <symbol id="T" overflow="visible">
            <path d="M13.344 0v-100.344h79.594v11.063H31.672v31.61h53.453v10.03H31.672v36.578h66.172V0zm0 0"/>
        </symbol>
        <symbol id="S" overflow="visible">
            <path d="M30.219 0H13.344v-100.344H31.5L95.844-29.03l5.89 7.953-.359-7.89v-71.376h16.89V0h-17.984L35.766-71.64l-5.907-8.079.36 8.078zm0 0"/>
        </symbol>
        <symbol id="R" overflow="visible">
            <path d="M24.125-18.625H8.859V0H3.797v-21.625h20.328zm0 0"/>
        </symbol>
        <symbol id="Q" overflow="visible">
            <path d="M28.484 0h-5.062v-18.61H12.719v9.891C12.719-2.594 9.645.47 3.5.47 2.344.469 1.21.355.11.14v-2.875c.956.136 1.937.203 2.937.203 2.101 0 3.476-.696 4.125-2.094.383-.809.578-2.3.578-4.469v-12.531h20.734zm0 0"/>
        </symbol>
        <symbol id="P" overflow="visible">
            <path d="M4-21.625h5.047V0H4zm-5.906-3.313v-3.609h5.062v3.61zm11.797 0v-3.609h5.078v3.61zm0 0"/>
        </symbol>
        <symbol id="O" overflow="visible">
            <path d="M16.875.594c-4.586 0-8.164-1.11-10.734-3.328-2.407-2.059-3.61-4.758-3.61-8.094 0-3.32 1.203-6.02 3.61-8.094 2.59-2.207 6.171-3.312 10.734-3.312 4.559 0 8.129 1.113 10.703 3.328 2.414 2.074 3.625 4.77 3.625 8.078 0 3.336-1.21 6.035-3.625 8.094C25.004-.516 21.434.594 16.875.594zm0-3c3.008 0 5.328-.899 6.953-2.703 1.395-1.54 2.094-3.446 2.094-5.72 0-2.257-.7-4.155-2.094-5.687-1.625-1.808-3.945-2.718-6.953-2.718-3.023 0-5.352.902-6.984 2.703C8.492-15 7.797-13.098 7.797-10.828c0 2.273.695 4.18 2.094 5.719 1.632 1.804 3.96 2.703 6.984 2.703zm0 0"/>
        </symbol>
        <symbol id="W" overflow="visible">
            <path d="M115.266-100.344h17.062L74.875 0H56.453L2.813-100.344H22.78l44.657 84.11zm0 0"/>
        </symbol>
        <symbol id="M" overflow="visible">
            <path d="M27.156 0h-5.062v-9.125c-2.625.73-5.508 1.094-8.64 1.094-3.7 0-6.349-.719-7.938-2.156-1.43-1.29-2.141-3.286-2.141-5.985v-5.453h5.047v4.063c0 2.21.27 3.71.812 4.5.852 1.218 2.63 1.828 5.329 1.828 2.644 0 5.156-.32 7.53-.97v-9.421h5.063zm0 0"/>
        </symbol>
        <symbol id="L" overflow="visible">
            <path d="M8.86 0H3.796v-21.625h5.062v16.469l15.297-16.469h5.063V0h-5.063v-16.484zm0 0"/>
        </symbol>
        <symbol id="K" overflow="visible">
            <path d="M11.39-18.625H.548v-3H27.28v3H16.438V0H11.39zm0 0"/>
        </symbol>
        <symbol id="J" overflow="visible">
            <path d="M22.969-5.563h5.078v.204c0 .968-.508 1.945-1.516 2.921C24.406-.413 21.06.595 16.5.595 11.82.594 8.27-.5 5.844-2.687 3.633-4.684 2.53-7.399 2.53-10.829c0-3.414 1.102-6.117 3.313-8.11 2.426-2.195 5.976-3.296 10.656-3.296 4.465 0 7.813.976 10.031 2.922 1.008.917 1.516 1.933 1.516 3.046v.188h-5.078v-.188c0-1.976-2.07-2.968-6.203-2.968-3.157 0-5.504.882-7.032 2.64-1.293 1.461-1.937 3.383-1.937 5.766 0 2.398.644 4.324 1.937 5.781 1.528 1.762 3.875 2.64 7.032 2.64 1.613 0 2.972-.202 4.078-.609 1.414-.52 2.125-1.3 2.125-2.343zm0 0"/>
        </symbol>
        <symbol id="H" overflow="visible">
            <path d="M17.906-8.797L7.453 0H1.11l10.657-8.953c-2.524-.332-4.536-1.05-6.032-2.156-1.617-1.184-2.421-2.672-2.421-4.454 0-1.945.82-3.457 2.468-4.53 1.602-1.02 3.782-1.532 6.532-1.532h14.562V0h-5.047v-8.797zm3.922-2.875v-7.11H13.75c-3.313 0-4.969 1.137-4.969 3.407 0 2.469 1.754 3.703 5.266 3.703zm0 0"/>
        </symbol>
        <symbol id="G" overflow="visible">
            <path d="M4-21.625h5.047V0H4zm0-4.813v-3.609h5.047v3.61zm0 0"/>
        </symbol>
        <symbol id="F" overflow="visible">
            <path d="M8.313 0H3.796v-21.625h5.172L18.64-6.344l9.672-15.281h5.171V0H28.97v-15.531L20.687-3h-4.265l-8.11-12.531zm0 0"/>
        </symbol>
        <symbol id="E" overflow="visible">
            <path d="M23.828-5.563h5.063v.204c0 .949-.54 1.925-1.61 2.921C25.113-.413 21.68.595 16.984.595 12.422.594 8.832-.484 6.22-2.641 3.758-4.668 2.53-7.348 2.53-10.67c0-3.196 1.227-5.88 3.688-8.048 2.644-2.34 6.16-3.515 10.547-3.515 8.207 0 12.312 3.558 12.312 10.672v1.203H7.531c0 2.304.832 4.175 2.5 5.609 1.77 1.563 4.235 2.344 7.39 2.344 1.614 0 3-.203 4.157-.61 1.496-.52 2.25-1.3 2.25-2.343zm-15.969-7.5h16.375v-.437c0-1.715-.746-3.102-2.234-4.156-1.48-1.051-3.41-1.578-5.781-1.578-2.211 0-4.102.66-5.672 1.968-1.367 1.137-2.262 2.54-2.688 4.203zm0 0"/>
        </symbol>
        <symbol id="D" overflow="visible">
            <path d="M32.156 7.047h-4.922V0H5.375v7.047H.469V-3h3.547C5.742-5.309 6.93-7.598 7.578-9.86c.582-1.988.875-4.425.875-7.312v-4.453H27.47V-3h4.687zM22.422-3v-15.594l-9.11-.015v.968c0 5.875-1.261 10.758-3.78 14.641zm0 0"/>
        </symbol>
        <symbol id="B" overflow="visible">
            <path d="M22.719 0c-.524-1.164-.782-2.164-.782-3C18.532-.602 15.137.594 11.767.594c-2.532 0-4.618-.528-6.25-1.578-1.7-1.114-2.547-2.563-2.547-4.344 0-2.477 1.945-4.39 5.844-5.734 2.09-.708 5.562-1.391 10.406-2.047l2.718-.375v-2.438c0-2.394-2.132-3.594-6.39-3.594-1.668 0-3.129.246-4.375.735-1.543.605-2.313 1.46-2.313 2.562v.297H3.375v-.281c0-.957.566-1.945 1.703-2.969 2.27-2.05 5.82-3.078 10.656-3.078 4.852 0 8.188.91 10 2.719.832.836 1.25 2.402 1.25 4.703v8.406c0 2.649.352 4.79 1.063 6.422zm-.782-10.922l-1.53.266c-3.731.68-6.184 1.207-7.36 1.578C9.96-8.11 8.422-6.832 8.422-5.25c0 .93.515 1.7 1.547 2.313.976.554 2.129.828 3.453.828 1.488 0 2.898-.301 4.234-.907 1.34-.613 2.39-1.398 3.14-2.359.759-.957 1.142-2.086 1.142-3.39zm0 0"/>
        </symbol>
    </defs>
    <g clip-path="url(#a)" transform="translate(-225.96 -148.07)">
        <g clip-path="url(#b)">
            <g clip-path="url(#c)">
                <path d="M1228.402 125.785L973.535 152.88l47.594 447.691 254.867-27.097zm0 0" fill="#fff"/>
            </g>
        </g>
    </g>
    <g clip-path="url(#d)" transform="translate(-225.96 -148.07)">
        <g clip-path="url(#e)">
            <g clip-path="url(#f)">
                <path d="M1209.371 420.574l-143.71 15.278 31.898 300.03 143.71-15.277zm0 0" fill="#fff"/>
            </g>
        </g>
    </g>
    <g clip-path="url(#g)" transform="translate(-225.96 -148.07)">
        <g clip-path="url(#h)">
            <g clip-path="url(#i)">
                <path d="M1072.293 363.2l-232.559 24.722 27.149 255.367 232.558-24.726zm0 0" fill="#fff"/>
            </g>
        </g>
    </g>
    <path d="M879.04 234.93l-6.36-2.282c-6.602 0-12.23-3.975-19.23-11.975l-6.41-10.743c5-7 13.398-11 20-11l13 2 11-2c6.6 0 16.665 6.038 18.665 11.038l-14.217 15.346c0 6.602-9.847 9.616-16.449 9.616" fill="#fff"/>
    <g clip-path="url(#j)" transform="translate(-225.96 -148.07)">
        <g clip-path="url(#k)">
            <g clip-path="url(#l)">
                <path d="M1170.492 168.102L984.02 187.926l27.488 258.57 186.472-19.824zm0 0" fill="#fff"/>
            </g>
        </g>
    </g>
    <g clip-path="url(#m)" transform="translate(-225.96 -148.07)">
        <g clip-path="url(#n)">
            <g clip-path="url(#o)">
                <path d="M1097.559 323.563l-10.375 1.101.765 7.191 10.375-1.101zm0 0" fill="#fff"/>
            </g>
        </g>
    </g>
    <g clip-path="url(#p)" transform="translate(-225.96 -148.07)">
        <g clip-path="url(#q)">
            <g clip-path="url(#r)">
                <path d="M1138.676 338.117l-72.45 7.703 2.989 28.118 72.45-7.704zm0 0" fill="#fff"/>
            </g>
        </g>
    </g>
    <g clip-path="url(#s)" transform="translate(-225.96 -148.07)">
        <g clip-path="url(#t)">
            <g clip-path="url(#u)">
                <path d="M1133.223 352.059l-64.48 6.855 3.425 32.215 64.48-6.856zm0 0" fill="#fff"/>
            </g>
        </g>
    </g>
    <g clip-path="url(#v)" transform="translate(-225.96 -148.07)">
        <g clip-path="url(#w)">
            <g clip-path="url(#x)">
                <path d="M1118.809 323.36l-12.286 1.304.79 7.395 12.28-1.305zm0 0" fill="#fff"/>
            </g>
        </g>
    </g>
    <g clip-path="url(#y)" transform="translate(-225.96 -148.07)">
        <g clip-path="url(#z)">
            <g clip-path="url(#A)">
                <path d="M1061.32 249.559l-73.715 7.836 6.254 58.832 73.715-7.836zm0 0" fill="#fff"/>
            </g>
        </g>
    </g>
    <g fill="#fff" transform="translate(-225.96 -148.07)">
        <use height="100%" width="100%" y="783.697" x="291.506" xlink:href="#B"/>
        <use height="100%" width="100%" y="783.697" x="322.286" xlink:href="#C"/>
        <use height="100%" width="100%" y="783.697" x="352.231" xlink:href="#B"/>
        <use height="100%" width="100%" y="783.697" x="383.011" xlink:href="#D"/>
        <use height="100%" width="100%" y="783.697" x="416.018" xlink:href="#E"/>
        <use height="100%" width="100%" y="783.697" x="448.078" xlink:href="#F"/>
        <use height="100%" width="100%" y="783.697" x="485.37" xlink:href="#G"/>
        <use height="100%" width="100%" y="783.697" x="498.451" xlink:href="#H"/>
        <use height="100%" width="100%" y="783.697" x="529.231" xlink:href="#I"/>
        <use height="100%" width="100%" y="783.697" x="547.765" xlink:href="#E"/>
        <use height="100%" width="100%" y="783.697" x="579.826" xlink:href="#J"/>
        <use height="100%" width="100%" y="783.697" x="610.161" xlink:href="#K"/>
        <use height="100%" width="100%" y="783.697" x="637.991" xlink:href="#E"/>
        <use height="100%" width="100%" y="783.697" x="670.051" xlink:href="#K"/>
        <use height="100%" width="100%" y="783.697" x="697.881" xlink:href="#L"/>
        <use height="100%" width="100%" y="783.697" x="730.887" xlink:href="#M"/>
        <use height="100%" width="100%" y="783.697" x="761.834" xlink:href="#N"/>
        <use height="100%" width="100%" y="783.697" x="794.284" xlink:href="#O"/>
        <use height="100%" width="100%" y="783.697" x="828.014" xlink:href="#P"/>
        <use height="100%" width="100%" y="783.697" x="841.095" xlink:href="#I"/>
        <use height="100%" width="100%" y="783.697" x="859.629" xlink:href="#C"/>
        <use height="100%" width="100%" y="783.697" x="889.575" xlink:href="#O"/>
        <use height="100%" width="100%" y="783.697" x="923.305" xlink:href="#J"/>
        <use height="100%" width="100%" y="783.697" x="953.639" xlink:href="#F"/>
        <use height="100%" width="100%" y="783.697" x="990.932" xlink:href="#E"/>
        <use height="100%" width="100%" y="783.697" x="1022.992" xlink:href="#K"/>
        <use height="100%" width="100%" y="783.697" x="1050.822" xlink:href="#O"/>
        <use height="100%" width="100%" y="783.697" x="1084.552" xlink:href="#Q"/>
        <use height="100%" width="100%" y="783.697" x="1117.002" xlink:href="#O"/>
        <use height="100%" width="100%" y="783.697" x="1150.732" xlink:href="#R"/>
        <use height="100%" width="100%" y="783.697" x="1175.167" xlink:href="#G"/>
        <use height="100%" width="100%" y="783.697" x="1188.247" xlink:href="#P"/>
    </g>
    <path d="M1064.469 215.93h82.57v484H5.816v-484h482.02" fill="none" stroke="#fff" stroke-width="11.633000000000001" stroke-linecap="round" stroke-miterlimit="10"/>
    <path d="M1009.961 236.93h119.578v438H22.34v-438h645.103" fill="none" stroke="#fff" stroke-width="7" stroke-linecap="round" stroke-linejoin="round" stroke-miterlimit="10"/>
    <g fill="#fff" transform="translate(-225.96 -148.07)">
        <use height="100%" width="100%" y="546.572" x="360.68" xlink:href="#S"/>
        <use height="100%" width="100%" y="546.572" x="492.276" xlink:href="#T"/>
        <use height="100%" width="100%" y="546.572" x="599.337" xlink:href="#U"/>
    </g>
    <g fill="#fff" transform="translate(-225.96 -148.07)">
        <use height="100%" width="100%" y="695.259" x="285.031" xlink:href="#V"/>
        <use height="100%" width="100%" y="695.259" x="393.393" xlink:href="#T"/>
        <use height="100%" width="100%" y="695.259" x="500.454" xlink:href="#W"/>
        <use height="100%" width="100%" y="695.259" x="635.582" xlink:href="#T"/>
        <use height="100%" width="100%" y="695.259" x="742.643" xlink:href="#V"/>
    </g>
</svg>
